<!--?xml version="1.0" encoding="utf-8"?-->
<!-- Generator: Adobe Illustrator 19.1.1, SVG Export Plug-In . SVG Version: 6.00 Build 0)  -->
<svg version="1.1" id="_x31_0" xmlns="http://www.w3.org/2000/svg" xmlns:xlink="http://www.w3.org/1999/xlink" x="0px" y="0px" viewBox="0 0 512 512" style="width: 200px; height: 200px; opacity: 1;" xml:space="preserve">
<style type="text/css">
	.st0{fill:#dce4d5;}
</style>
<g>
	<path class="st0" d="M463.451,383.295c2.983,0,5.67,0.156,8.173,0.491c0.122,0.026,0.278,0.03,0.396,0.057v-0.015
		c0.05,0.008,0.106,0.008,0.156,0.015v-23.612c0-22.673-18.389-40.985-40.985-40.985h-42.937c-22.752,0-41.064,18.312-41.064,40.985
		v56.805c0,2.028,0.468,3.82,1.404,5.376c1.012-2.18,2.26-4.284,3.584-6.308c13.092-20.497,35.688-32.809,60.389-32.809H463.451z"></path>
	<path class="st0" d="M281.505,383.295c11.232,0,22.166,2.786,32.055,7.72c1.582,0.818,3.207,1.545,4.722,2.488v-0.08
		c0.05,0.03,0.106,0.05,0.156,0.08v-33.272c0-22.673-18.312-40.985-40.985-40.985h-42.856c-22.677,0-40.989,18.312-40.989,40.985
		v33.352c11.064-6.7,23.844-10.288,36.936-10.288H281.505z"></path>
	<path class="st0" d="M123.871,319.246H80.858c-22.597,0-40.989,18.312-40.989,40.985v20.888l-0.018,2.488c0.007,0,0.015,0,0.015,0
		l0.003,0.156c2.648-0.312,5.612-0.468,8.728-0.468h50.881c24.705,0,47.301,12.312,60.545,32.961
		c1.248,1.948,2.416,3.976,3.508,6.08c0.856-1.56,1.324-3.272,1.324-5.3v-56.805C164.855,337.558,146.543,319.246,123.871,319.246z"></path>
	<path class="st0" d="M472.237,407.463c-2.91-0.639-5.822-0.818-8.827-0.818h-50.862c-17.106,0-32.211,8.82-40.764,22.197
		c-4.912,7.557-7.826,16.654-7.826,26.302v38.755c0,4.174,3.382,7.552,7.553,7.552h132.938c4.17,0,7.552-3.378,7.552-7.552v-38.755
		C512,431.303,494.894,411.557,472.237,407.463z"></path>
	<path class="st0" d="M281.524,406.645h-50.957c-14.104,0-26.751,6.004-35.666,15.646c-8.009,8.648-12.921,20.203-12.921,32.854
		v38.755c0,4.174,3.382,7.552,7.552,7.552h133.026c4.17,0,7.552-3.378,7.552-7.552v-38.755c0-12.65-4.912-24.206-12.921-32.854
		C308.271,412.649,295.533,406.645,281.524,406.645z"></path>
	<path class="st0" d="M99.452,406.645H48.586c-2.91,0-5.913,0.179-8.732,0.727C17.106,411.557,0,431.303,0,455.144v38.755
		c0,4.174,3.382,7.552,7.553,7.552H140.49c4.17,0,7.548-3.378,7.548-7.552v-38.755c0-9.649-2.819-18.746-7.731-26.302
		C131.754,415.465,116.558,406.645,99.452,406.645z"></path>
	<path class="st0" d="M455.952,10.549H58.235v197.006v0.601v0.156h6.008c3.554-11.851,10.322-22.341,19.378-30.464V35.938h346.942
		v213.67v0.498h-173.13v25.39h198.519V10.549z"></path>
	<path class="st0" d="M86.752,227.602v6.095h-3.131H58.235h-8.633v47.171v0.145v0.156h182.445v-5.673v-25.39v-16.41h-37.233v-6.095
		c0-22.931-18.705-41.719-41.635-41.719h-24.708C105.54,185.882,86.752,204.67,86.752,227.602z"></path>
	<path class="st0" d="M132.192,173.19c2.709,0.757,5.673,1.099,8.633,1.099c3.044,0,5.924-0.422,8.717-1.099
		c7.107-1.861,13.282-5.841,17.768-11.171c5.163-6.091,8.294-13.959,8.294-22.509c0-19.21-15.569-34.779-34.779-34.779
		s-34.779,15.569-34.779,34.779c0,8.55,3.131,16.418,8.29,22.509C118.91,167.438,125.085,171.413,132.192,173.19z"></path>
</g>
</svg>
